<svg width="100" height="100" viewBox="0 0 68 68" fill="none" xmlns="http://www.w3.org/2000/svg">
    <path
        d="M23.5 65.5H8.1C6.13982 65.5 5.15972 65.5 4.41103 65.1185C3.75247 64.783 3.21703 64.2475 2.88148 63.589C2.5 62.8403 2.5 61.8602 2.5 59.9V8.1C2.5 6.13982 2.5 5.15973 2.88148 4.41103C3.21703 3.75247 3.75247 3.21703 4.41103 2.88148C5.15972 2.5 6.13982 2.5 8.1 2.5H17.9C19.8602 2.5 20.8403 2.5 21.589 2.88148C22.2475 3.21703 22.783 3.75247 23.1185 4.41103C23.5 5.15972 23.5 6.13982 23.5 8.1V16.5M23.5 65.5H44.5M23.5 65.5L23.5 16.5M23.5 16.5H38.9C40.8602 16.5 41.8403 16.5 42.589 16.8815C43.2475 17.217 43.783 17.7525 44.1185 18.411C44.5 19.1597 44.5 20.1398 44.5 22.1V65.5M44.5 30.5H59.9C61.8602 30.5 62.8403 30.5 63.589 30.8815C64.2475 31.217 64.783 31.7525 65.1185 32.411C65.5 33.1597 65.5 34.1398 65.5 36.1V59.9C65.5 61.8602 65.5 62.8403 65.1185 63.589C64.783 64.2475 64.2475 64.783 63.589 65.1185C62.8403 65.5 61.8602 65.5 59.9 65.5H44.5"
        stroke="#E43D35" stroke-width="5" stroke-linecap="round" stroke-linejoin="round" />
</svg>