<svg width="33" height="32" viewBox="0 0 33 32" fill="none" xmlns="http://www.w3.org/2000/svg">
<path d="M11.8528 11.3678C12.2054 10.3987 12.9015 9.58153 13.8177 9.06102C14.7339 8.5405 15.8111 8.35023 16.8585 8.52391C17.906 8.69758 18.856 9.22398 19.5404 10.0099C20.2248 10.7958 20.5994 11.7905 20.5978 12.8178C20.5978 15.7178 16.0978 17.1678 16.0978 17.1678M16.2178 22.9678H16.2328M31.2178 15.7178C31.2178 23.7259 24.502 30.2178 16.2178 30.2178C7.9335 30.2178 1.21777 23.7259 1.21777 15.7178C1.21777 7.70964 7.9335 1.21777 16.2178 1.21777C24.502 1.21777 31.2178 7.70964 31.2178 15.7178Z" stroke="black" stroke-width="2.43548" stroke-linecap="round" stroke-linejoin="round"/>
</svg>
