<svg width="22" height="21" viewBox="0 0 22 21" fill="none" xmlns="http://www.w3.org/2000/svg">
    <path
        d="M1 1H2.30616C2.55218 1 2.67519 1 2.77418 1.04094C2.86142 1.07702 2.93535 1.13504 2.98715 1.20808C3.04593 1.29097 3.06333 1.40117 3.09812 1.62156L3.57143 4.61968M3.57143 4.61968L4.62332 11.616C4.75681 12.5038 4.82355 12.9477 5.0581 13.2819C5.26478 13.5763 5.56108 13.8105 5.91135 13.9561C6.30886 14.1213 6.80394 14.1213 7.79411 14.1213H16.352C17.2945 14.1213 17.7658 14.1213 18.151 13.9679C18.4905 13.8326 18.7818 13.6144 18.9923 13.3379C19.2309 13.0242 19.3191 12.6053 19.4955 11.7674L20.8191 5.47907C20.8812 5.18418 20.9122 5.03673 20.8672 4.92147C20.8278 4.82036 20.7499 4.73523 20.6475 4.68123C20.5308 4.61968 20.365 4.61968 20.0332 4.61968H3.57143ZM9 18.1935C9 18.6933 8.55228 19.0984 8 19.0984C7.44772 19.0984 7 18.6933 7 18.1935C7 17.6937 7.44772 17.2886 8 17.2886C8.55228 17.2886 9 17.6937 9 18.1935ZM17 18.1935C17 18.6933 16.5523 19.0984 16 19.0984C15.4477 19.0984 15 18.6933 15 18.1935C15 17.6937 15.4477 17.2886 16 17.2886C16.5523 17.2886 17 17.6937 17 18.1935Z"
        stroke="currentColor" stroke-width="2" stroke-linecap="round" stroke-linejoin="round" />
</svg>