<svg width="22" height="19" viewBox="0 0 22 19" fill="none" xmlns="http://www.w3.org/2000/svg">
<path d="M3.00013 5.52152C2.83612 5.51769 2.71703 5.5091 2.60995 5.48983C1.81657 5.34702 1.19637 4.78579 1.03856 4.06784C1.00013 3.89301 1.00013 3.68278 1.00013 3.2623C1.00013 2.84182 1.00013 2.63159 1.03856 2.45676C1.19637 1.73881 1.81657 1.17758 2.60995 1.03478C2.80315 1 3.03547 1 3.50013 1H18.5001C18.9648 1 19.1971 1 19.3903 1.03478C20.1837 1.17758 20.8039 1.73881 20.9617 2.45676C21.0001 2.63159 21.0001 2.84182 21.0001 3.2623C21.0001 3.68278 21.0001 3.89301 20.9617 4.06784C20.8039 4.78579 20.1837 5.34702 19.3903 5.48983C19.2832 5.5091 19.1641 5.51769 19.0001 5.52152M9.00013 10.0492H13.0001M3.00013 5.5246H19.0001V12.9449C19.0001 14.4654 19.0001 15.2256 18.6731 15.8063C18.3855 16.3171 17.9266 16.7324 17.3621 16.9927C16.7204 17.2886 15.8803 17.2886 14.2001 17.2886H7.80013C6.11997 17.2886 5.27989 17.2886 4.63816 16.9927C4.07367 16.7324 3.61473 16.3171 3.32711 15.8063C3.00013 15.2256 3.00013 14.4654 3.00013 12.9449V5.5246Z" stroke="black" stroke-width="2" stroke-linecap="round" stroke-linejoin="round"/>
</svg>
