<svg viewBox="0 0 289 212" xmlns="http://www.w3.org/2000/svg" className={className}>
    <g clip-path="url(#clip0_140_1610)">
        <path
            d="M48.4462 194.276L52.8111 180.379C53.5765 180.274 54.3595 180.222 55.1542 180.222C55.832 180.222 56.4981 180.257 57.1526 180.333L61.5642 194.352C61.7746 195.069 61.8096 195.723 61.6928 196.277C61.5759 196.814 61.3071 197.228 60.9624 197.537C60.6176 197.846 60.156 198.074 59.5717 198.208C58.9873 198.342 56.691 198.412 55.8086 198.412H54.2485C53.3662 198.412 51.0522 198.342 50.4796 198.208C49.907 198.074 49.4454 197.852 49.1065 197.537C48.7617 197.228 48.4871 196.814 48.3761 196.277C48.2709 195.758 48.2767 195.034 48.4462 194.276Z"
            fill="#DCC524" />
        <path
            d="M71.7256 195.781C71.7256 204.375 64.3047 211.341 55.1483 211.341C45.992 211.341 38.5711 204.375 38.5711 195.781C38.5711 189.399 42.6614 183.915 48.5221 181.517L44.5429 194.188C44.0112 196.44 44.204 197.21 44.5254 198.307C44.8467 199.404 45.3843 200.443 46.1615 201.055C46.9795 201.697 47.4236 201.849 48.376 202.111C50.0764 202.584 53.5824 202.566 55.1717 202.566H55.2944C56.8838 202.566 60.8221 202.438 61.944 202.129C63.2529 201.773 63.1828 201.744 63.9775 201.148C64.7721 200.553 65.409 199.737 65.7129 198.634C66.0226 197.537 66.1687 196.061 65.6954 194.474L61.2896 181.324C67.4074 183.611 71.7314 189.224 71.7314 195.781H71.7256Z"
            fill="#DCC524" />
        <path
            d="M33.0142 180.438C33.6745 180.438 34.0076 180.77 34.0076 181.429V185.846C34.0076 186.54 33.6745 186.884 33.0142 186.884H12.9135C11.739 186.884 10.7691 186.983 10.0036 187.176C9.23814 187.374 8.6246 187.701 8.17467 188.168C7.72474 188.634 7.39752 189.259 7.20469 190.04C7.00602 190.822 6.91253 191.814 6.91253 193.016V199.416C6.91253 200.618 7.01187 201.615 7.20469 202.415C7.39752 203.214 7.72474 203.844 8.17467 204.311C8.6246 204.777 9.23814 205.11 10.0036 205.302C10.7691 205.501 11.7449 205.594 12.9135 205.594H33.0084C33.6687 205.594 34.0017 205.927 34.0017 206.586V211.002C34.0017 211.662 33.6687 211.994 33.0084 211.994H12.6447C10.3542 211.994 8.41424 211.784 6.81904 211.364C5.22384 210.944 3.9208 210.261 2.90993 209.31C1.89905 208.365 1.1628 207.134 0.695344 205.612C0.233729 204.101 0 202.257 0 200.098V192.345C0 190.18 0.233729 188.349 0.701187 186.843C1.16864 185.338 1.90489 184.113 2.91577 183.168C3.92665 182.223 5.22384 181.528 6.82488 181.091C8.42008 180.653 10.36 180.438 12.6506 180.438H33.0201H33.0142Z"
            fill="currentColor" />
        <path
            d="M98.5635 180C101 180 103.092 180.251 104.839 180.741C106.586 181.237 108.018 182.001 109.128 183.04C110.244 184.078 111.062 185.402 111.588 187.007C112.114 188.617 112.377 190.519 112.377 192.712V198.844C112.377 201.038 112.114 202.94 111.588 204.55C111.062 206.16 110.238 207.479 109.128 208.517C108.012 209.556 106.586 210.32 104.839 210.816C103.092 211.312 101 211.562 98.5635 211.562H77.4286C76.5229 211.562 76.0729 211.113 76.0729 210.209V181.354C76.0729 180.449 76.5229 180 77.4286 180H98.5635ZM82.9855 204.707C82.9855 205.098 83.1783 205.291 83.5698 205.291H98.3824C99.7088 205.291 100.819 205.168 101.725 204.929C102.63 204.69 103.355 204.299 103.916 203.756C104.471 203.214 104.868 202.496 105.114 201.592C105.353 200.688 105.476 199.579 105.476 198.255V193.296C105.476 191.972 105.353 190.863 105.114 189.959C104.874 189.055 104.477 188.337 103.916 187.794C103.361 187.252 102.63 186.861 101.725 186.622C100.819 186.382 99.7088 186.26 98.3824 186.26H83.5698C83.1783 186.26 82.9855 186.47 82.9855 186.89V204.702V204.707Z"
            fill="currentColor" />
        <path
            d="M123.941 180C124.601 180 124.934 180.333 124.934 180.992V210.571C124.934 211.23 124.601 211.562 123.941 211.562H119.062C118.366 211.562 118.021 211.23 118.021 210.571V180.992C118.021 180.333 118.366 180 119.062 180H123.941Z"
            fill="currentColor" />
        <path
            d="M150.995 180C152.14 180 153.104 180.233 153.887 180.7C154.67 181.167 155.436 182.077 156.189 183.43L171.136 210.53C171.288 210.833 171.323 211.078 171.247 211.271C171.171 211.469 170.955 211.562 170.593 211.562H164.855C164.341 211.562 163.996 211.37 163.815 210.979L160.607 205.162H139.384L136.27 210.979C136.059 211.37 135.715 211.562 135.23 211.562H129.357C128.966 211.562 128.732 211.463 128.656 211.271C128.58 211.078 128.615 210.827 128.767 210.53L143.58 183.43C144.333 182.077 145.07 181.167 145.794 180.7C146.525 180.233 147.366 180 148.33 180H150.995ZM142.23 199.929H157.767L150.586 186.721C150.463 186.511 150.299 186.406 150.089 186.406H149.82C149.61 186.406 149.44 186.511 149.324 186.721L142.236 199.929H142.23Z"
            fill="currentColor" />
        <path
            d="M178.995 180C179.656 180 179.989 180.333 179.989 180.992V198.984C179.989 200.186 180.088 201.184 180.281 201.983C180.474 202.782 180.801 203.412 181.251 203.879C181.701 204.346 182.314 204.678 183.08 204.871C183.845 205.069 184.821 205.162 185.99 205.162H204.279C204.939 205.162 205.272 205.495 205.272 206.154V210.571C205.272 211.23 204.939 211.562 204.279 211.562H185.721C183.43 211.562 181.491 211.352 179.895 210.932C178.3 210.512 176.997 209.83 175.992 208.879C174.981 207.934 174.245 206.703 173.777 205.18C173.31 203.663 173.076 201.82 173.076 199.655V180.992C173.076 180.333 173.421 180 174.116 180H178.995Z"
            fill="currentColor" />
        <path
            d="M214.534 180C215.194 180 215.527 180.333 215.527 180.992V198.984C215.527 200.186 215.627 201.184 215.819 201.983C216.012 202.782 216.34 203.412 216.789 203.879C217.239 204.346 217.853 204.678 218.618 204.871C219.384 205.069 220.36 205.162 221.528 205.162H234.039C235.213 205.162 236.183 205.063 236.949 204.871C237.714 204.678 238.328 204.346 238.777 203.879C239.227 203.412 239.543 202.782 239.724 201.983C239.905 201.189 239.993 200.186 239.993 198.984V180.992C239.993 180.333 240.326 180 240.986 180H245.906C246.567 180 246.9 180.333 246.9 180.992V199.661C246.9 201.825 246.672 203.669 246.222 205.186C245.772 206.703 245.041 207.934 244.031 208.885C243.02 209.83 241.711 210.518 240.104 210.938C238.491 211.358 236.545 211.568 234.255 211.568H221.248C218.957 211.568 217.017 211.358 215.422 210.938C213.827 210.518 212.524 209.836 211.519 208.885C210.508 207.939 209.772 206.708 209.304 205.186C208.837 203.669 208.603 201.825 208.603 199.661V180.992C208.603 180.333 208.948 180 209.643 180H214.522H214.534Z"
            fill="currentColor" />
        <path
            d="M280.194 180C283.297 180 285.5 180.618 286.809 181.849C288.118 183.08 288.772 184.947 288.772 187.438V189.603C288.772 192.129 287.808 194.037 285.88 195.332C287.96 196.534 288.994 198.471 288.994 201.149V203.762C288.994 204.964 288.86 206.049 288.585 207.006C288.316 207.969 287.872 208.785 287.253 209.462C286.633 210.139 285.815 210.658 284.793 211.02C283.77 211.382 282.502 211.562 281.001 211.562H254.174C253.269 211.562 252.819 211.113 252.819 210.209V181.354C252.819 180.449 253.269 180 254.174 180H280.188H280.194ZM259.737 193.121H278.254C279.762 193.121 280.784 192.893 281.328 192.444C281.871 191.995 282.14 191.33 282.14 190.461V188.926C282.14 187.993 281.877 187.31 281.351 186.873C280.825 186.435 279.972 186.219 278.798 186.219H260.327C259.936 186.219 259.743 186.418 259.743 186.803V193.115L259.737 193.121ZM259.737 198.033V204.754C259.737 205.145 259.93 205.337 260.321 205.337H278.839C280.042 205.337 280.901 205.122 281.415 204.684C281.93 204.246 282.181 203.552 282.181 202.59V200.874C282.181 199.941 281.9 199.235 281.345 198.757C280.79 198.278 279.756 198.033 278.254 198.033H259.737Z"
            fill="currentColor" />
    </g>
    <g clip-path="url(#clip1_140_1610)">
        <path
            d="M136.573 48.4679C132.488 45.622 127.503 43.9514 122.132 43.9514H90.048L93.0787 48.3537H122.138C126.99 48.3537 131.456 50.0133 134.978 52.7831C135.408 51.3139 135.949 49.8773 136.584 48.4788C136.584 48.4788 136.579 48.4788 136.573 48.4734V48.4679ZM147.802 46.9334C147.829 46.8953 147.862 46.8572 147.89 46.8191L147.802 46.9334ZM151.677 4.40222V0H120.84L117.716 35.1905H113.206L116.336 0H111.87L108.745 35.1905H104.279L107.404 0H102.899L99.7748 35.1905H95.3144L98.4389 0H93.9785L90.4565 39.5492H122.143C128.243 39.5492 133.912 41.383 138.627 44.5174C138.643 44.5282 138.66 44.5391 138.676 44.55C139.416 43.342 140.228 42.1829 141.116 41.0837C141.15 41.0402 141.188 40.9967 141.221 40.9531C141.199 40.9368 141.177 40.9205 141.155 40.9096C135.734 37.3019 129.209 35.196 122.187 35.196L122.59 30.7992H151.688V26.397H122.993L123.352 22.0002H151.693V17.6034H123.755L124.153 13.2067H151.688V8.80444H124.55L124.909 4.40766H151.688L151.677 4.40222ZM110.396 65.9462H114.862V68.716C114.862 72.6339 118.119 75.8444 122.138 75.8444C126.156 75.8444 129.369 72.6339 129.369 68.716C129.369 64.798 126.112 61.5875 122.138 61.5875H88.4858L88.0883 66.0333L110.401 65.9462H110.396ZM119.322 65.9462H122.132C123.65 65.9462 124.898 67.176 124.898 68.716C124.898 70.2559 123.65 71.4422 122.132 71.4422C120.614 71.4422 119.322 70.2069 119.322 68.716V65.9462ZM133.979 57.8655C131.031 54.7203 126.819 52.745 122.132 52.745H96.0265L99.0572 57.1418H122.132C128.342 57.1418 133.405 61.9249 133.797 67.9487C133.819 67.2903 133.819 66.6373 133.824 65.9952C133.841 63.2853 133.714 60.5645 133.973 57.8601L133.979 57.8655Z"
            fill="currentColor" />
        <path
            d="M175.221 73.7493V61.1902C175.221 57.2288 171.964 54.0618 167.945 54.0618C163.926 54.0618 160.714 57.2288 160.714 61.1902V97.4799C160.714 101.392 163.971 104.608 167.945 104.608C171.92 104.608 175.221 101.398 175.221 97.4799V84.9208H170.755V97.4799C170.755 98.9764 169.507 100.206 167.945 100.206C166.383 100.206 165.18 98.9764 165.18 97.4799V61.1902C165.18 59.6938 166.427 58.464 167.945 58.464C169.463 58.464 170.755 59.6938 170.755 61.1902V73.7493H175.221ZM175.221 73.7493V61.1902C175.221 57.2288 171.964 54.0618 167.945 54.0618C163.926 54.0618 160.714 57.2288 160.714 61.1902V97.4799C160.714 101.392 163.971 104.608 167.945 104.608C171.92 104.608 175.221 101.398 175.221 97.4799V84.9208H170.755V97.4799C170.755 98.9764 169.507 100.206 167.945 100.206C166.383 100.206 165.18 98.9764 165.18 97.4799V61.1902C165.18 59.6938 166.427 58.464 167.945 58.464C169.463 58.464 170.755 59.6938 170.755 61.1902V73.7493H175.221ZM155.563 74.7614C155.558 74.8104 155.547 74.8594 155.536 74.9029C154.895 78.3257 153.609 81.7756 151.793 84.9807V97.4799C151.793 106.279 159.024 113.402 167.951 113.402C176.877 113.402 184.153 106.273 184.153 97.4799V84.9208H179.692V97.4799C179.692 103.857 174.426 109.005 167.956 109.005C161.486 109.005 156.264 103.857 156.264 97.4799M175.221 73.7493V61.1902C175.221 57.2288 171.964 54.0618 167.945 54.0618C163.926 54.0618 160.714 57.2288 160.714 61.1902V97.4799C160.714 101.392 163.971 104.608 167.945 104.608C171.92 104.608 175.221 101.398 175.221 97.4799V84.9208H170.755V97.4799C170.755 98.9764 169.507 100.206 167.945 100.206C166.383 100.206 165.18 98.9764 165.18 97.4799V61.1902C165.18 59.6938 166.427 58.464 167.945 58.464C169.463 58.464 170.755 59.6938 170.755 61.1902V73.7493H175.221ZM155.563 74.7614C155.558 74.8104 155.547 74.8594 155.536 74.9029C154.895 78.3257 153.609 81.7756 151.793 84.9807V97.4799C151.793 106.279 159.024 113.402 167.951 113.402C176.877 113.402 184.153 106.273 184.153 97.4799V84.9208H179.692V97.4799C179.692 103.857 174.426 109.005 167.956 109.005C161.486 109.005 156.264 103.857 156.264 97.4799M175.221 73.7493V61.1902C175.221 57.2288 171.964 54.0618 167.945 54.0618C163.926 54.0618 160.714 57.2288 160.714 61.1902V97.4799C160.714 101.392 163.971 104.608 167.945 104.608C171.92 104.608 175.221 101.398 175.221 97.4799V84.9208H170.755V97.4799C170.755 98.9764 169.507 100.206 167.945 100.206C166.383 100.206 165.18 98.9764 165.18 97.4799V61.1902C165.18 59.6938 166.427 58.464 167.945 58.464C169.463 58.464 170.755 59.6938 170.755 61.1902V73.7493H175.221ZM175.221 73.7493V61.1902C175.221 57.2288 171.964 54.0618 167.945 54.0618C163.926 54.0618 160.714 57.2288 160.714 61.1902V97.4799C160.714 101.392 163.971 104.608 167.945 104.608C171.92 104.608 175.221 101.398 175.221 97.4799V84.9208H170.755V97.4799C170.755 98.9764 169.507 100.206 167.945 100.206C166.383 100.206 165.18 98.9764 165.18 97.4799V61.1902C165.18 59.6938 166.427 58.464 167.945 58.464C169.463 58.464 170.755 59.6938 170.755 61.1902V73.7493H175.221ZM155.563 74.7614C155.558 74.8104 155.547 74.8594 155.536 74.9029C154.895 78.3257 153.609 81.7756 151.793 84.9807V97.4799C151.793 106.279 159.024 113.402 167.951 113.402C176.877 113.402 184.153 106.273 184.153 97.4799V84.9208H179.692V97.4799C179.692 103.857 174.426 109.005 167.956 109.005C161.486 109.005 156.264 103.857 156.264 97.4799M175.221 73.7493V61.1902C175.221 57.2288 171.964 54.0618 167.945 54.0618C163.926 54.0618 160.714 57.2288 160.714 61.1902V97.4799C160.714 101.392 163.971 104.608 167.945 104.608C171.92 104.608 175.221 101.398 175.221 97.4799V84.9208H170.755V97.4799C170.755 98.9764 169.507 100.206 167.945 100.206C166.383 100.206 165.18 98.9764 165.18 97.4799V61.1902C165.18 59.6938 166.427 58.464 167.945 58.464C169.463 58.464 170.755 59.6938 170.755 61.1902V73.7493H175.221ZM155.563 74.7614C155.558 74.8104 155.547 74.8594 155.536 74.9029C154.895 78.3257 153.609 81.7756 151.793 84.9807V97.4799C151.793 106.279 159.024 113.402 167.951 113.402C176.877 113.402 184.153 106.273 184.153 97.4799V84.9208H179.692V97.4799C179.692 103.857 174.426 109.005 167.956 109.005C161.486 109.005 156.264 103.857 156.264 97.4799M155.563 74.7614C155.558 74.8104 155.547 74.8594 155.536 74.9029C154.895 78.3257 153.609 81.7756 151.793 84.9807V97.4799C151.793 106.279 159.024 113.402 167.951 113.402C176.877 113.402 184.153 106.273 184.153 97.4799V84.9208H179.692V97.4799C179.692 103.857 174.426 109.005 167.956 109.005C161.486 109.005 156.264 103.857 156.264 97.4799M175.221 73.7493V61.1902C175.221 57.2288 171.964 54.0618 167.945 54.0618C163.926 54.0618 160.714 57.2288 160.714 61.1902V97.4799C160.714 101.392 163.971 104.608 167.945 104.608C171.92 104.608 175.221 101.398 175.221 97.4799V84.9208H170.755V97.4799C170.755 98.9764 169.507 100.206 167.945 100.206C166.383 100.206 165.18 98.9764 165.18 97.4799V61.1902C165.18 59.6938 166.427 58.464 167.945 58.464C169.463 58.464 170.755 59.6938 170.755 61.1902V73.7493H175.221ZM175.221 73.7493V61.1902C175.221 57.2288 171.964 54.0618 167.945 54.0618C163.926 54.0618 160.714 57.2288 160.714 61.1902V97.4799C160.714 101.392 163.971 104.608 167.945 104.608C171.92 104.608 175.221 101.398 175.221 97.4799V84.9208H170.755V97.4799C170.755 98.9764 169.507 100.206 167.945 100.206C166.383 100.206 165.18 98.9764 165.18 97.4799V61.1902C165.18 59.6938 166.427 58.464 167.945 58.464C169.463 58.464 170.755 59.6938 170.755 61.1902V73.7493H175.221ZM155.563 74.7614C155.558 74.8104 155.547 74.8594 155.536 74.9029C154.895 78.3257 153.609 81.7756 151.793 84.9807V97.4799C151.793 106.279 159.024 113.402 167.951 113.402C176.877 113.402 184.153 106.273 184.153 97.4799V84.9208H179.692V97.4799C179.692 103.857 174.426 109.005 167.956 109.005C161.486 109.005 156.264 103.857 156.264 97.4799M175.221 73.7493V61.1902C175.221 57.2288 171.964 54.0618 167.945 54.0618C163.926 54.0618 160.714 57.2288 160.714 61.1902V97.4799C160.714 101.392 163.971 104.608 167.945 104.608C171.92 104.608 175.221 101.398 175.221 97.4799V84.9208H170.755V97.4799C170.755 98.9764 169.507 100.206 167.945 100.206C166.383 100.206 165.18 98.9764 165.18 97.4799V61.1902C165.18 59.6938 166.427 58.464 167.945 58.464C169.463 58.464 170.755 59.6938 170.755 61.1902V73.7493H175.221ZM155.563 74.7614C155.558 74.8104 155.547 74.8594 155.536 74.9029C154.895 78.3257 153.609 81.7756 151.793 84.9807V97.4799C151.793 106.279 159.024 113.402 167.951 113.402C176.877 113.402 184.153 106.273 184.153 97.4799V84.9208H179.692V97.4799C179.692 103.857 174.426 109.005 167.956 109.005C161.486 109.005 156.264 103.857 156.264 97.4799M155.563 74.7614C155.558 74.8104 155.547 74.8594 155.536 74.9029C154.895 78.3257 153.609 81.7756 151.793 84.9807V97.4799C151.793 106.279 159.024 113.402 167.951 113.402C176.877 113.402 184.153 106.273 184.153 97.4799V84.9208H179.692V97.4799C179.692 103.857 174.426 109.005 167.956 109.005C161.486 109.005 156.264 103.857 156.264 97.4799M175.221 73.7493V61.1902C175.221 57.2288 171.964 54.0618 167.945 54.0618C163.926 54.0618 160.714 57.2288 160.714 61.1902V97.4799C160.714 101.392 163.971 104.608 167.945 104.608C171.92 104.608 175.221 101.398 175.221 97.4799V84.9208H170.755V97.4799C170.755 98.9764 169.507 100.206 167.945 100.206C166.383 100.206 165.18 98.9764 165.18 97.4799V61.1902C165.18 59.6938 166.427 58.464 167.945 58.464C169.463 58.464 170.755 59.6938 170.755 61.1902V73.7493H175.221ZM175.221 73.7493V61.1902C175.221 57.2288 171.964 54.0618 167.945 54.0618C163.926 54.0618 160.714 57.2288 160.714 61.1902V97.4799C160.714 101.392 163.971 104.608 167.945 104.608C171.92 104.608 175.221 101.398 175.221 97.4799V84.9208H170.755V97.4799C170.755 98.9764 169.507 100.206 167.945 100.206C166.383 100.206 165.18 98.9764 165.18 97.4799V61.1902C165.18 59.6938 166.427 58.464 167.945 58.464C169.463 58.464 170.755 59.6938 170.755 61.1902V73.7493H175.221ZM155.563 74.7614C155.558 74.8104 155.547 74.8594 155.536 74.9029C154.895 78.3257 153.609 81.7756 151.793 84.9807V97.4799C151.793 106.279 159.024 113.402 167.951 113.402C176.877 113.402 184.153 106.273 184.153 97.4799V84.9208H179.692V97.4799C179.692 103.857 174.426 109.005 167.956 109.005C161.486 109.005 156.264 103.857 156.264 97.4799M155.563 74.7614C155.558 74.8104 155.547 74.8594 155.536 74.9029C154.895 78.3257 153.609 81.7756 151.793 84.9807V97.4799C151.793 106.279 159.024 113.402 167.951 113.402C176.877 113.402 184.153 106.273 184.153 97.4799V84.9208H179.692V97.4799C179.692 103.857 174.426 109.005 167.956 109.005C161.486 109.005 156.264 103.857 156.264 97.4799M175.221 73.7493V61.1902C175.221 57.2288 171.964 54.0618 167.945 54.0618C163.926 54.0618 160.714 57.2288 160.714 61.1902V97.4799C160.714 101.392 163.971 104.608 167.945 104.608C171.92 104.608 175.221 101.398 175.221 97.4799V84.9208H170.755V97.4799C170.755 98.9764 169.507 100.206 167.945 100.206C166.383 100.206 165.18 98.9764 165.18 97.4799V61.1902C165.18 59.6938 166.427 58.464 167.945 58.464C169.463 58.464 170.755 59.6938 170.755 61.1902V73.7493H175.221ZM197.534 84.9208V97.4799C197.534 113.582 184.28 126.603 167.945 126.603C151.611 126.603 138.621 114.224 138.406 98.3071C138.395 98.3125 138.378 98.3125 138.367 98.3179C136.976 99.0634 135.524 99.711 134.023 100.255C135.248 117.674 149.96 130.994 167.945 130.994C185.93 130.994 201.994 115.992 201.994 97.4745V84.9154H197.534V84.9208ZM155.563 74.7614C155.558 74.8104 155.547 74.8594 155.536 74.9029C154.895 78.3257 153.609 81.7756 151.793 84.9807V97.4799C151.793 106.279 159.024 113.402 167.951 113.402C176.877 113.402 184.153 106.273 184.153 97.4799V84.9208H179.692V97.4799C179.692 103.857 174.426 109.005 167.956 109.005C161.486 109.005 156.264 103.857 156.264 97.4799M175.221 73.7493V61.1902C175.221 57.2288 171.964 54.0618 167.945 54.0618C163.926 54.0618 160.714 57.2288 160.714 61.1902V97.4799C160.714 101.392 163.971 104.608 167.945 104.608C171.92 104.608 175.221 101.398 175.221 97.4799V84.9208H170.755V97.4799C170.755 98.9764 169.507 100.206 167.945 100.206C166.383 100.206 165.18 98.9764 165.18 97.4799V61.1902C165.18 59.6938 166.427 58.464 167.945 58.464C169.463 58.464 170.755 59.6938 170.755 61.1902V73.7493H175.221ZM175.221 73.7493V61.1902C175.221 57.2288 171.964 54.0618 167.945 54.0618C163.926 54.0618 160.714 57.2288 160.714 61.1902V97.4799C160.714 101.392 163.971 104.608 167.945 104.608C171.92 104.608 175.221 101.398 175.221 97.4799V84.9208H170.755V97.4799C170.755 98.9764 169.507 100.206 167.945 100.206C166.383 100.206 165.18 98.9764 165.18 97.4799V61.1902C165.18 59.6938 166.427 58.464 167.945 58.464C169.463 58.464 170.755 59.6938 170.755 61.1902V73.7493H175.221ZM155.563 74.7614C155.558 74.8104 155.547 74.8594 155.536 74.9029C154.895 78.3257 153.609 81.7756 151.793 84.9807V97.4799C151.793 106.279 159.024 113.402 167.951 113.402C176.877 113.402 184.153 106.273 184.153 97.4799V84.9208H179.692V97.4799C179.692 103.857 174.426 109.005 167.956 109.005C161.486 109.005 156.264 103.857 156.264 97.4799M175.221 73.7493V61.1902C175.221 57.2288 171.964 54.0618 167.945 54.0618C163.926 54.0618 160.714 57.2288 160.714 61.1902V97.4799C160.714 101.392 163.971 104.608 167.945 104.608C171.92 104.608 175.221 101.398 175.221 97.4799V84.9208H170.755V97.4799C170.755 98.9764 169.507 100.206 167.945 100.206C166.383 100.206 165.18 98.9764 165.18 97.4799V61.1902C165.18 59.6938 166.427 58.464 167.945 58.464C169.463 58.464 170.755 59.6938 170.755 61.1902V73.7493H175.221ZM155.563 74.7614C155.558 74.8104 155.547 74.8594 155.536 74.9029C154.895 78.3257 153.609 81.7756 151.793 84.9807V97.4799C151.793 106.279 159.024 113.402 167.951 113.402C176.877 113.402 184.153 106.273 184.153 97.4799V84.9208H179.692V97.4799C179.692 103.857 174.426 109.005 167.956 109.005C161.486 109.005 156.264 103.857 156.264 97.4799M175.221 73.7493V61.1902C175.221 57.2288 171.964 54.0618 167.945 54.0618C163.926 54.0618 160.714 57.2288 160.714 61.1902V97.4799C160.714 101.392 163.971 104.608 167.945 104.608C171.92 104.608 175.221 101.398 175.221 97.4799V84.9208H170.755V97.4799C170.755 98.9764 169.507 100.206 167.945 100.206C166.383 100.206 165.18 98.9764 165.18 97.4799V61.1902C165.18 59.6938 166.427 58.464 167.945 58.464C169.463 58.464 170.755 59.6938 170.755 61.1902V73.7493H175.221ZM155.563 74.7614C155.558 74.8104 155.547 74.8594 155.536 74.9029C154.895 78.3257 153.609 81.7756 151.793 84.9807V97.4799C151.793 106.279 159.024 113.402 167.951 113.402C176.877 113.402 184.153 106.273 184.153 97.4799V84.9208H179.692V97.4799C179.692 103.857 174.426 109.005 167.956 109.005C161.486 109.005 156.264 103.857 156.264 97.4799M155.563 74.7614C155.558 74.8104 155.547 74.8594 155.536 74.9029C154.895 78.3257 153.609 81.7756 151.793 84.9807V97.4799C151.793 106.279 159.024 113.402 167.951 113.402C176.877 113.402 184.153 106.273 184.153 97.4799V84.9208H179.692V97.4799C179.692 103.857 174.426 109.005 167.956 109.005C161.486 109.005 156.264 103.857 156.264 97.4799M175.221 73.7493V61.1902C175.221 57.2288 171.964 54.0618 167.945 54.0618C163.926 54.0618 160.714 57.2288 160.714 61.1902V97.4799C160.714 101.392 163.971 104.608 167.945 104.608C171.92 104.608 175.221 101.398 175.221 97.4799V84.9208H170.755V97.4799C170.755 98.9764 169.507 100.206 167.945 100.206C166.383 100.206 165.18 98.9764 165.18 97.4799V61.1902C165.18 59.6938 166.427 58.464 167.945 58.464C169.463 58.464 170.755 59.6938 170.755 61.1902V73.7493H175.221ZM175.221 73.7493V61.1902C175.221 57.2288 171.964 54.0618 167.945 54.0618C163.926 54.0618 160.714 57.2288 160.714 61.1902V97.4799C160.714 101.392 163.971 104.608 167.945 104.608C171.92 104.608 175.221 101.398 175.221 97.4799V84.9208H170.755V97.4799C170.755 98.9764 169.507 100.206 167.945 100.206C166.383 100.206 165.18 98.9764 165.18 97.4799V61.1902C165.18 59.6938 166.427 58.464 167.945 58.464C169.463 58.464 170.755 59.6938 170.755 61.1902V73.7493H175.221ZM175.221 73.7493V61.1902C175.221 57.2288 171.964 54.0618 167.945 54.0618C163.926 54.0618 160.714 57.2288 160.714 61.1902V97.4799C160.714 101.392 163.971 104.608 167.945 104.608C171.92 104.608 175.221 101.398 175.221 97.4799V84.9208H170.755V97.4799C170.755 98.9764 169.507 100.206 167.945 100.206C166.383 100.206 165.18 98.9764 165.18 97.4799V61.1902C165.18 59.6938 166.427 58.464 167.945 58.464C169.463 58.464 170.755 59.6938 170.755 61.1902V73.7493H175.221ZM155.563 74.7614C155.558 74.8104 155.547 74.8594 155.536 74.9029C154.895 78.3257 153.609 81.7756 151.793 84.9807V97.4799C151.793 106.279 159.024 113.402 167.951 113.402C176.877 113.402 184.153 106.273 184.153 97.4799V84.9208H179.692V97.4799C179.692 103.857 174.426 109.005 167.956 109.005C161.486 109.005 156.264 103.857 156.264 97.4799M175.221 73.7493V61.1902C175.221 57.2288 171.964 54.0618 167.945 54.0618C163.926 54.0618 160.714 57.2288 160.714 61.1902V97.4799C160.714 101.392 163.971 104.608 167.945 104.608C171.92 104.608 175.221 101.398 175.221 97.4799V84.9208H170.755V97.4799C170.755 98.9764 169.507 100.206 167.945 100.206C166.383 100.206 165.18 98.9764 165.18 97.4799V61.1902C165.18 59.6938 166.427 58.464 167.945 58.464C169.463 58.464 170.755 59.6938 170.755 61.1902V73.7493H175.221ZM155.563 74.7614C155.558 74.8104 155.547 74.8594 155.536 74.9029C154.895 78.3257 153.609 81.7756 151.793 84.9807V97.4799C151.793 106.279 159.024 113.402 167.951 113.402C176.877 113.402 184.153 106.273 184.153 97.4799V84.9208H179.692V97.4799C179.692 103.857 174.426 109.005 167.956 109.005C161.486 109.005 156.264 103.857 156.264 97.4799M175.221 73.7493V61.1902C175.221 57.2288 171.964 54.0618 167.945 54.0618C163.926 54.0618 160.714 57.2288 160.714 61.1902V97.4799C160.714 101.392 163.971 104.608 167.945 104.608C171.92 104.608 175.221 101.398 175.221 97.4799V84.9208H170.755V97.4799C170.755 98.9764 169.507 100.206 167.945 100.206C166.383 100.206 165.18 98.9764 165.18 97.4799V61.1902C165.18 59.6938 166.427 58.464 167.945 58.464C169.463 58.464 170.755 59.6938 170.755 61.1902V73.7493H175.221ZM175.221 73.7493V61.1902C175.221 57.2288 171.964 54.0618 167.945 54.0618C163.926 54.0618 160.714 57.2288 160.714 61.1902V97.4799C160.714 101.392 163.971 104.608 167.945 104.608C171.92 104.608 175.221 101.398 175.221 97.4799V84.9208H170.755V97.4799C170.755 98.9764 169.507 100.206 167.945 100.206C166.383 100.206 165.18 98.9764 165.18 97.4799V61.1902C165.18 59.6938 166.427 58.464 167.945 58.464C169.463 58.464 170.755 59.6938 170.755 61.1902V73.7493H175.221ZM155.563 74.7614C155.558 74.8104 155.547 74.8594 155.536 74.9029C154.895 78.3257 153.609 81.7756 151.793 84.9807V97.4799C151.793 106.279 159.024 113.402 167.951 113.402C176.877 113.402 184.153 106.273 184.153 97.4799V84.9208H179.692V97.4799C179.692 103.857 174.426 109.005 167.956 109.005C161.486 109.005 156.264 103.857 156.264 97.4799M175.221 73.7493V61.1902C175.221 57.2288 171.964 54.0618 167.945 54.0618C163.926 54.0618 160.714 57.2288 160.714 61.1902V97.4799C160.714 101.392 163.971 104.608 167.945 104.608C171.92 104.608 175.221 101.398 175.221 97.4799V84.9208H170.755V97.4799C170.755 98.9764 169.507 100.206 167.945 100.206C166.383 100.206 165.18 98.9764 165.18 97.4799V61.1902C165.18 59.6938 166.427 58.464 167.945 58.464C169.463 58.464 170.755 59.6938 170.755 61.1902V73.7493H175.221ZM155.563 74.7614C155.558 74.8104 155.547 74.8594 155.536 74.9029C154.895 78.3257 153.609 81.7756 151.793 84.9807V97.4799C151.793 106.279 159.024 113.402 167.951 113.402C176.877 113.402 184.153 106.273 184.153 97.4799V84.9208H179.692V97.4799C179.692 103.857 174.426 109.005 167.956 109.005C161.486 109.005 156.264 103.857 156.264 97.4799M155.563 74.7614C155.558 74.8104 155.547 74.8594 155.536 74.9029C154.895 78.3257 153.609 81.7756 151.793 84.9807V97.4799C151.793 106.279 159.024 113.402 167.951 113.402C176.877 113.402 184.153 106.273 184.153 97.4799V84.9208H179.692V97.4799C179.692 103.857 174.426 109.005 167.956 109.005C161.486 109.005 156.264 103.857 156.264 97.4799M175.221 73.7493V61.1902C175.221 57.2288 171.964 54.0618 167.945 54.0618C163.926 54.0618 160.714 57.2288 160.714 61.1902V97.4799C160.714 101.392 163.971 104.608 167.945 104.608C171.92 104.608 175.221 101.398 175.221 97.4799V84.9208H170.755V97.4799C170.755 98.9764 169.507 100.206 167.945 100.206C166.383 100.206 165.18 98.9764 165.18 97.4799V61.1902C165.18 59.6938 166.427 58.464 167.945 58.464C169.463 58.464 170.755 59.6938 170.755 61.1902V73.7493H175.221ZM175.221 73.7493V61.1902C175.221 57.2288 171.964 54.0618 167.945 54.0618C163.926 54.0618 160.714 57.2288 160.714 61.1902V97.4799C160.714 101.392 163.971 104.608 167.945 104.608C171.92 104.608 175.221 101.398 175.221 97.4799V84.9208H170.755V97.4799C170.755 98.9764 169.507 100.206 167.945 100.206C166.383 100.206 165.18 98.9764 165.18 97.4799V61.1902C165.18 59.6938 166.427 58.464 167.945 58.464C169.463 58.464 170.755 59.6938 170.755 61.1902V73.7493H175.221ZM175.221 73.7493V61.1902C175.221 57.2288 171.964 54.0618 167.945 54.0618C163.926 54.0618 160.714 57.2288 160.714 61.1902V97.4799C160.714 101.392 163.971 104.608 167.945 104.608C171.92 104.608 175.221 101.398 175.221 97.4799V84.9208H170.755V97.4799C170.755 98.9764 169.507 100.206 167.945 100.206C166.383 100.206 165.18 98.9764 165.18 97.4799V61.1902C165.18 59.6938 166.427 58.464 167.945 58.464C169.463 58.464 170.755 59.6938 170.755 61.1902V73.7493H175.221ZM155.563 74.7614C155.558 74.8104 155.547 74.8594 155.536 74.9029C154.895 78.3257 153.609 81.7756 151.793 84.9807V97.4799C151.793 106.279 159.024 113.402 167.951 113.402C176.877 113.402 184.153 106.273 184.153 97.4799V84.9208H179.692V97.4799C179.692 103.857 174.426 109.005 167.956 109.005C161.486 109.005 156.264 103.857 156.264 97.4799M175.221 73.7493V61.1902C175.221 57.2288 171.964 54.0618 167.945 54.0618C163.926 54.0618 160.714 57.2288 160.714 61.1902V97.4799C160.714 101.392 163.971 104.608 167.945 104.608C171.92 104.608 175.221 101.398 175.221 97.4799V84.9208H170.755V97.4799C170.755 98.9764 169.507 100.206 167.945 100.206C166.383 100.206 165.18 98.9764 165.18 97.4799V61.1902C165.18 59.6938 166.427 58.464 167.945 58.464C169.463 58.464 170.755 59.6938 170.755 61.1902V73.7493H175.221ZM155.563 74.7614C155.558 74.8104 155.547 74.8594 155.536 74.9029C154.895 78.3257 153.609 81.7756 151.793 84.9807V97.4799C151.793 106.279 159.024 113.402 167.951 113.402C176.877 113.402 184.153 106.273 184.153 97.4799V84.9208H179.692V97.4799C179.692 103.857 174.426 109.005 167.956 109.005C161.486 109.005 156.264 103.857 156.264 97.4799M175.221 73.7493V61.1902C175.221 57.2288 171.964 54.0618 167.945 54.0618C163.926 54.0618 160.714 57.2288 160.714 61.1902V97.4799C160.714 101.392 163.971 104.608 167.945 104.608C171.92 104.608 175.221 101.398 175.221 97.4799V84.9208H170.755V97.4799C170.755 98.9764 169.507 100.206 167.945 100.206C166.383 100.206 165.18 98.9764 165.18 97.4799V61.1902C165.18 59.6938 166.427 58.464 167.945 58.464C169.463 58.464 170.755 59.6938 170.755 61.1902V73.7493H175.221ZM175.221 73.7493V61.1902C175.221 57.2288 171.964 54.0618 167.945 54.0618C163.926 54.0618 160.714 57.2288 160.714 61.1902V97.4799C160.714 101.392 163.971 104.608 167.945 104.608C171.92 104.608 175.221 101.398 175.221 97.4799V84.9208H170.755V97.4799C170.755 98.9764 169.507 100.206 167.945 100.206C166.383 100.206 165.18 98.9764 165.18 97.4799V61.1902C165.18 59.6938 166.427 58.464 167.945 58.464C169.463 58.464 170.755 59.6938 170.755 61.1902V73.7493H175.221ZM155.563 74.7614C155.558 74.8104 155.547 74.8594 155.536 74.9029C154.895 78.3257 153.609 81.7756 151.793 84.9807V97.4799C151.793 106.279 159.024 113.402 167.951 113.402C176.877 113.402 184.153 106.273 184.153 97.4799V84.9208H179.692V97.4799C179.692 103.857 174.426 109.005 167.956 109.005C161.486 109.005 156.264 103.857 156.264 97.4799M188.608 84.9208V97.4799C188.608 108.695 179.372 117.804 167.945 117.804C156.518 117.804 147.327 108.7 147.327 97.4799L147.57 91.1949C146.206 92.6968 144.473 94.4109 142.866 95.5917V97.4799C142.866 111.116 154.106 122.201 167.945 122.201C181.785 122.201 193.074 111.116 193.074 97.4799V84.9208H188.608ZM175.221 73.7493V61.1902C175.221 57.2288 171.964 54.0618 167.945 54.0618C163.926 54.0618 160.714 57.2288 160.714 61.1902V97.4799C160.714 101.392 163.971 104.608 167.945 104.608C171.92 104.608 175.221 101.398 175.221 97.4799V84.9208H170.755V97.4799C170.755 98.9764 169.507 100.206 167.945 100.206C166.383 100.206 165.18 98.9764 165.18 97.4799V61.1902C165.18 59.6938 166.427 58.464 167.945 58.464C169.463 58.464 170.755 59.6938 170.755 61.1902V73.7493H175.221ZM155.563 74.7614C155.558 74.8104 155.547 74.8594 155.536 74.9029C154.895 78.3257 153.609 81.7756 151.793 84.9807V97.4799C151.793 106.279 159.024 113.402 167.951 113.402C176.877 113.402 184.153 106.273 184.153 97.4799V84.9208H179.692V97.4799C179.692 103.857 174.426 109.005 167.956 109.005C161.486 109.005 156.264 103.857 156.264 97.4799M155.563 74.7614C155.558 74.8104 155.547 74.8594 155.536 74.9029C154.895 78.3257 153.609 81.7756 151.793 84.9807V97.4799C151.793 106.279 159.024 113.402 167.951 113.402C176.877 113.402 184.153 106.273 184.153 97.4799V84.9208H179.692V97.4799C179.692 103.857 174.426 109.005 167.956 109.005C161.486 109.005 156.264 103.857 156.264 97.4799M175.221 73.7493V61.1902C175.221 57.2288 171.964 54.0618 167.945 54.0618C163.926 54.0618 160.714 57.2288 160.714 61.1902V97.4799C160.714 101.392 163.971 104.608 167.945 104.608C171.92 104.608 175.221 101.398 175.221 97.4799V84.9208H170.755V97.4799C170.755 98.9764 169.507 100.206 167.945 100.206C166.383 100.206 165.18 98.9764 165.18 97.4799V61.1902C165.18 59.6938 166.427 58.464 167.945 58.464C169.463 58.464 170.755 59.6938 170.755 61.1902V73.7493H175.221ZM175.221 73.7493V61.1902C175.221 57.2288 171.964 54.0618 167.945 54.0618C163.926 54.0618 160.714 57.2288 160.714 61.1902V97.4799C160.714 101.392 163.971 104.608 167.945 104.608C171.92 104.608 175.221 101.398 175.221 97.4799V84.9208H170.755V97.4799C170.755 98.9764 169.507 100.206 167.945 100.206C166.383 100.206 165.18 98.9764 165.18 97.4799V61.1902C165.18 59.6938 166.427 58.464 167.945 58.464C169.463 58.464 170.755 59.6938 170.755 61.1902V73.7493H175.221ZM175.221 73.7493V61.1902C175.221 57.2288 171.964 54.0618 167.945 54.0618C163.926 54.0618 160.714 57.2288 160.714 61.1902V97.4799C160.714 101.392 163.971 104.608 167.945 104.608C171.92 104.608 175.221 101.398 175.221 97.4799V84.9208H170.755V97.4799C170.755 98.9764 169.507 100.206 167.945 100.206C166.383 100.206 165.18 98.9764 165.18 97.4799V61.1902C165.18 59.6938 166.427 58.464 167.945 58.464C169.463 58.464 170.755 59.6938 170.755 61.1902V73.7493H175.221ZM155.563 74.7614C155.558 74.8104 155.547 74.8594 155.536 74.9029C154.895 78.3257 153.609 81.7756 151.793 84.9807V97.4799C151.793 106.279 159.024 113.402 167.951 113.402C176.877 113.402 184.153 106.273 184.153 97.4799V84.9208H179.692V97.4799C179.692 103.857 174.426 109.005 167.956 109.005C161.486 109.005 156.264 103.857 156.264 97.4799M175.221 73.7493V61.1902C175.221 57.2288 171.964 54.0618 167.945 54.0618C163.926 54.0618 160.714 57.2288 160.714 61.1902V97.4799C160.714 101.392 163.971 104.608 167.945 104.608C171.92 104.608 175.221 101.398 175.221 97.4799V84.9208H170.755V97.4799C170.755 98.9764 169.507 100.206 167.945 100.206C166.383 100.206 165.18 98.9764 165.18 97.4799V61.1902C165.18 59.6938 166.427 58.464 167.945 58.464C169.463 58.464 170.755 59.6938 170.755 61.1902V73.7493H175.221ZM175.221 73.7493V61.1902C175.221 57.2288 171.964 54.0618 167.945 54.0618C163.926 54.0618 160.714 57.2288 160.714 61.1902V97.4799C160.714 101.392 163.971 104.608 167.945 104.608C171.92 104.608 175.221 101.398 175.221 97.4799V84.9208H170.755V97.4799C170.755 98.9764 169.507 100.206 167.945 100.206C166.383 100.206 165.18 98.9764 165.18 97.4799V61.1902C165.18 59.6938 166.427 58.464 167.945 58.464C169.463 58.464 170.755 59.6938 170.755 61.1902V73.7493H175.221ZM175.221 73.7493V61.1902C175.221 57.2288 171.964 54.0618 167.945 54.0618C163.926 54.0618 160.714 57.2288 160.714 61.1902V97.4799C160.714 101.392 163.971 104.608 167.945 104.608C171.92 104.608 175.221 101.398 175.221 97.4799V84.9208H170.755V97.4799C170.755 98.9764 169.507 100.206 167.945 100.206C166.383 100.206 165.18 98.9764 165.18 97.4799V61.1902C165.18 59.6938 166.427 58.464 167.945 58.464C169.463 58.464 170.755 59.6938 170.755 61.1902V73.7493H175.221ZM155.563 74.7614C155.558 74.8104 155.547 74.8594 155.536 74.9029C154.895 78.3257 153.609 81.9987 151.793 85.1984V97.4799C151.793 106.279 159.024 113.402 167.951 113.402C176.877 113.402 184.153 106.273 184.153 97.4799V84.9208H179.692V97.4799C179.692 103.857 174.426 109.005 167.956 109.005C161.486 109.005 156.264 103.857 156.264 97.4799L155.569 74.756L155.563 74.7614ZM175.221 73.7493V61.1902C175.221 57.2288 171.964 54.0618 167.945 54.0618C163.926 54.0618 160.714 57.2288 160.714 61.1902V97.4799C160.714 101.392 163.971 104.608 167.945 104.608C171.92 104.608 175.221 101.398 175.221 97.4799V84.9208H170.755V97.4799C170.755 98.9764 169.507 100.206 167.945 100.206C166.383 100.206 165.18 98.9764 165.18 97.4799V61.1902C165.18 59.6938 166.427 58.464 167.945 58.464C169.463 58.464 170.755 59.6938 170.755 61.1902V73.7493H175.221ZM175.221 73.7493V61.1902C175.221 57.2288 171.964 54.0618 167.945 54.0618C163.926 54.0618 160.714 57.2288 160.714 61.1902V97.4799C160.714 101.392 163.971 104.608 167.945 104.608C171.92 104.608 175.221 101.398 175.221 97.4799V84.9208H170.755V97.4799C170.755 98.9764 169.507 100.206 167.945 100.206C166.383 100.206 165.18 98.9764 165.18 97.4799V61.1902C165.18 59.6938 166.427 58.464 167.945 58.464C169.463 58.464 170.755 59.6938 170.755 61.1902V73.7493H175.221ZM175.221 73.7493V61.1902C175.221 57.2288 171.964 54.0618 167.945 54.0618C163.926 54.0618 160.714 57.2288 160.714 61.1902V97.4799C160.714 101.392 163.971 104.608 167.945 104.608C171.92 104.608 175.221 101.398 175.221 97.4799V84.9208H170.755V97.4799C170.755 98.9764 169.507 100.206 167.945 100.206C166.383 100.206 165.18 98.9764 165.18 97.4799V61.1902C165.18 59.6938 166.427 58.464 167.945 58.464C169.463 58.464 170.755 59.6938 170.755 61.1902V73.7493H175.221Z"
            fill="currentColor" />
        <path
            d="M174.658 77.6021C175.083 77.6021 175.337 77.7326 175.613 78.2224L178.356 83.1307C178.417 83.2395 178.39 83.3211 178.257 83.3211H177.203C177.092 83.3211 177.054 83.2994 177.01 83.2123L176.419 82.1566H172.527L171.953 83.2123C171.909 83.2939 171.859 83.3211 171.76 83.3211H170.683C170.54 83.3211 170.518 83.2395 170.573 83.1307L173.289 78.2224C173.565 77.7326 173.813 77.6021 174.161 77.6021H174.652H174.658ZM173.051 81.2152H175.9L174.581 78.821C174.559 78.7829 174.531 78.7611 174.487 78.7611H174.437C174.398 78.7611 174.371 78.7774 174.343 78.821L173.04 81.2152H173.051Z"
            fill="#E0C300" />
        <path
            d="M180.531 77.6019C181.061 77.6019 181.177 77.6672 181.492 78.0862L184.572 82.0695C184.594 82.1075 184.633 82.1293 184.677 82.1293H184.755C184.793 82.1293 184.821 82.1075 184.821 82.0477V77.7869C184.821 77.6618 184.882 77.6074 185.003 77.6074H185.875C186.002 77.6074 186.057 77.6672 186.057 77.7869V82.4776C186.057 83.1414 185.814 83.3265 185.312 83.3265H184.6C184.092 83.3265 183.971 83.2775 183.639 82.8422L180.548 78.8589C180.515 78.8208 180.487 78.7991 180.438 78.7991H180.36C180.311 78.7991 180.294 78.8208 180.294 78.8807V83.1414C180.294 83.2666 180.233 83.321 180.112 83.321H179.24C179.113 83.321 179.047 83.2611 179.047 83.1414V78.4508C179.047 77.7869 179.289 77.6019 179.792 77.6019H180.52H180.531ZM180.587 77.2537C180.454 77.2537 180.438 77.1884 180.438 77.0142C180.438 76.1218 180.736 75.8715 181.475 75.8715C182.072 75.8715 182.469 76.0348 182.845 76.3286C183.027 76.4864 183.159 76.5844 183.474 76.5844C183.805 76.5844 183.849 76.4592 183.855 76.0184C183.86 75.8878 183.949 75.8389 184.081 75.8389H184.556C184.683 75.8389 184.705 75.9042 184.705 76.0783C184.705 76.9707 184.396 77.221 183.662 77.221C183.071 77.221 182.673 77.0578 182.304 76.7639C182.11 76.6061 181.989 76.5082 181.663 76.5082C181.337 76.5082 181.288 76.6333 181.288 77.0741C181.277 77.2047 181.194 77.2537 181.056 77.2537H180.592H180.587Z"
            fill="#E0C300" />
        <path
            d="M191.975 77.6021C193.659 77.6021 194.294 78.1897 194.294 79.7569V81.1608C194.294 82.728 193.653 83.3157 191.975 83.3157H189.414C187.741 83.3157 187.095 82.728 187.095 81.1608V79.7569C187.095 78.1897 187.741 77.6021 189.414 77.6021H191.975ZM188.359 81.0738C188.359 81.9335 188.608 82.1838 189.463 82.1838H191.925C192.781 82.1838 193.029 81.9281 193.029 81.0738V79.8494C193.029 78.9896 192.781 78.7393 191.925 78.7393H189.463C188.608 78.7393 188.359 78.9951 188.359 79.8494V81.0738Z"
            fill="#E0C300" />
        <path
            d="M201.078 77.6019C201.205 77.6019 201.26 77.6617 201.26 77.7814V78.5596C201.26 78.6847 201.2 78.7392 201.078 78.7392H196.927C196.612 78.7392 196.485 78.9133 196.485 79.1962V79.4738C196.485 79.7785 196.629 79.9309 196.916 79.9309H200.024C200.979 79.9309 201.476 80.4369 201.476 81.3348V81.9878C201.476 82.7822 201.012 83.3209 200.007 83.3209H195.414C195.287 83.3209 195.221 83.2611 195.221 83.1414V82.3632C195.221 82.2381 195.287 82.1837 195.414 82.1837H199.764C200.079 82.1837 200.206 82.0095 200.206 81.7266V81.3892C200.206 81.0845 200.062 80.9321 199.775 80.9321H196.667C195.712 80.9321 195.216 80.426 195.216 79.5282V78.9296C195.216 78.1351 195.679 77.5964 196.684 77.5964H201.073L201.078 77.6019Z"
            fill="#E0C300" />
        <path
            d="M167.752 28.3396C156.927 28.3396 147.288 33.3186 141.061 41.0837C140.139 42.2264 139.295 43.4345 138.533 44.6915C136.203 48.5386 134.481 52.9572 133.973 57.4301C133.653 60.2761 133.797 63.1438 133.78 66.0006C133.763 68.6506 133.769 71.4911 132.582 73.9181C130.644 77.8632 126.493 80.4153 122.055 80.4153C115.585 80.4153 110.319 75.2676 110.319 68.8901V66.1203H105.853V68.8901C105.853 77.6891 113.084 84.8175 122.055 84.8175C130.655 84.8175 137.274 78.1788 138.102 69.9566C138.423 66.7787 138.075 63.5682 138.257 60.3795C138.516 55.8521 139.786 51.3955 142.077 47.4503C142.822 46.1607 143.667 44.9309 144.6 43.7773C150.015 37.0515 158.384 32.7364 167.757 32.7364C184.092 32.7364 197.346 45.758 197.346 61.8596V74.4187H201.807V61.8596C201.807 43.342 186.543 28.3396 167.757 28.3396H167.752Z"
            fill="#E0C300" />
        <path
            d="M167.752 37.1385C159.593 37.1385 152.334 40.9748 147.757 46.9333C146.808 48.1631 145.98 49.4799 145.279 50.873C144.478 52.4565 143.849 54.1379 143.407 55.8955C142.668 58.8503 142.452 61.8867 142.568 64.9231C142.762 70.0218 142.993 74.6526 140.233 79.2235C136.623 85.1983 129.066 89.2088 122.055 89.2088C110.628 89.2088 101.392 80.0996 101.392 68.8845V66.1148H96.9319V68.8845C96.9319 82.5211 108.177 93.6055 122.055 93.6055C132.251 93.6055 141.674 87.2661 145.356 77.8903C145.82 76.7095 146.19 75.496 146.449 74.2608C147.774 68.0248 146.129 61.4242 148.216 55.3405C148.795 53.6536 149.59 52.0701 150.573 50.6172C154.271 45.143 160.587 41.5298 167.752 41.5298C179.179 41.5298 188.415 50.639 188.415 61.854V74.4132H192.88V61.854C192.88 48.1685 181.636 37.1331 167.757 37.1331L167.752 37.1385Z"
            fill="#E0C300" />
        <path
            d="M167.752 45.9376C161.255 45.9376 155.651 49.7141 153.09 55.1665C150.507 60.657 152.096 66.8441 151.456 72.6557C150.545 80.954 145.235 88.7355 138.207 93.2737C136.8 94.1825 135.304 94.9769 133.741 95.6408C130.153 97.1699 126.201 98.0133 122.049 98.0133C105.715 98.0133 92.4604 84.9917 92.4604 68.8901V66.1204H88.011L88 66.2074V68.8901C88 87.4077 103.264 102.41 122.055 102.41C126.19 102.41 130.153 101.681 133.819 100.348C135.337 99.7982 136.805 99.1452 138.213 98.3888C147.051 94.2913 153.642 84.7196 155.381 75.3928C155.392 75.3438 155.398 75.2948 155.409 75.2513C156.203 70.86 156.06 66.2945 156.06 61.8542C156.06 55.4767 161.282 50.329 167.752 50.329C174.222 50.329 179.488 55.4767 179.488 61.8542V74.4133H183.949V61.8542C183.949 53.0552 176.673 45.9268 167.752 45.9268V45.9376Z"
            fill="#E0C300" />
    </g>
    <defs>
        <clipPath id="clip0_140_1610">
            <rect width="289" height="32" fill="white" transform="translate(0 180)" />
        </clipPath>
        <clipPath id="clip1_140_1610">
            <rect width="114" height="131" fill="white" transform="translate(88)" />
        </clipPath>
    </defs>
</svg>