<svg width="22" height="20" viewBox="0 0 22 20" fill="none" xmlns="http://www.w3.org/2000/svg">
    <path
        d="M12.0917 1.45629C11.7013 1.2055 11.5062 1.0801 11.2906 1.0319C11.1005 0.989367 10.9 0.989367 10.7099 1.0319C10.4943 1.0801 10.2992 1.2055 9.9088 1.45629L2.3729 6.29786C1.86916 6.6215 1.61728 6.78332 1.43583 6.98597C1.27509 7.16549 1.15536 7.36772 1.0825 7.58273C1.00024 7.82546 1.00024 8.08904 1.00024 8.61619V15.2565C1.00024 16.2845 1.00024 16.7986 1.24245 17.1912C1.4555 17.5366 1.79546 17.8174 2.2136 17.9934C2.68896 18.1935 3.31124 18.1935 4.5558 18.1935H6.77802C7.08916 18.1935 7.24473 18.1935 7.36357 18.1435C7.46811 18.0995 7.5531 18.0293 7.60636 17.9429C7.66691 17.8448 7.66691 17.7162 7.66691 17.4592V11.4017C7.66691 10.8877 7.66691 10.6306 7.78802 10.4343C7.89454 10.2616 8.06452 10.1212 8.27359 10.0332C8.51127 9.93318 8.82241 9.93318 9.44469 9.93318H12.5558C13.1781 9.93318 13.4892 9.93318 13.7269 10.0332C13.936 10.1212 14.1059 10.2616 14.2125 10.4343C14.3336 10.6306 14.3336 10.8877 14.3336 11.4017V17.4592C14.3336 17.7162 14.3336 17.8448 14.3941 17.9429C14.4474 18.0293 14.5324 18.0995 14.6369 18.1435C14.7558 18.1935 14.9113 18.1935 15.2225 18.1935H17.4447C18.6893 18.1935 19.3115 18.1935 19.7869 17.9934C20.205 17.8174 20.545 17.5366 20.758 17.1912C21.0002 16.7986 21.0002 16.2845 21.0002 15.2565V8.61619C21.0002 8.08904 21.0002 7.82546 20.918 7.58273C20.8451 7.36772 20.7254 7.16549 20.5647 6.98597C20.3832 6.78332 20.1313 6.6215 19.6276 6.29786L12.0917 1.45629Z"
        stroke="currentColor" stroke-width="2" stroke-linecap="round" stroke-linejoin="round" />
</svg>