<svg width="23" height="23" viewBox="0 0 23 23" fill="none" xmlns="http://www.w3.org/2000/svg">
<path d="M4.23211 19.0603C4.87085 17.5555 6.36217 16.5 8.1 16.5H14.4C16.1378 16.5 17.6291 17.5555 18.2679 19.0603M15.45 8.625C15.45 10.9446 13.5696 12.825 11.25 12.825C8.9304 12.825 7.05 10.9446 7.05 8.625C7.05 6.3054 8.9304 4.425 11.25 4.425C13.5696 4.425 15.45 6.3054 15.45 8.625ZM21.75 11.25C21.75 17.049 17.049 21.75 11.25 21.75C5.45101 21.75 0.75 17.049 0.75 11.25C0.75 5.45101 5.45101 0.75 11.25 0.75C17.049 0.75 21.75 5.45101 21.75 11.25Z" stroke="black" stroke-width="1.5" stroke-linecap="round" stroke-linejoin="round"/>
</svg>
