<svg width="22" height="20" viewBox="0 0 22 20" fill="none" xmlns="http://www.w3.org/2000/svg">
    <path
        d="M3 11.0585L4.57465 16.7582C4.61893 16.9185 4.64107 16.9987 4.66727 17.0687C4.92317 17.7523 5.60352 18.233 6.39852 18.2919C6.4799 18.2979 6.5712 18.2979 6.75379 18.2979C6.98244 18.2979 7.09677 18.2979 7.19308 18.2894C8.145 18.2059 8.89834 17.5242 8.99066 16.6628C9 16.5756 9 16.4721 9 16.2652V3.3667M17.5 10.6061C19.433 10.6061 21 9.18804 21 7.43884C21 5.68963 19.433 4.27162 17.5 4.27162M9.25 3.3667H5.5C3.01472 3.3667 0.999998 5.18986 1 7.43884C1 9.68782 3.01472 11.511 5.5 11.511H9.25C11.0164 11.511 13.1772 12.3678 14.8443 13.1902C15.8168 13.6699 16.3031 13.9098 16.6216 13.8745C16.9169 13.8418 17.1402 13.7218 17.3133 13.5028C17.5 13.2667 17.5 12.7942 17.5 11.8492V3.02851C17.5 2.08352 17.5 1.61102 17.3133 1.37487C17.1402 1.15589 16.9169 1.03589 16.6216 1.00316C16.3031 0.967863 15.8168 1.20774 14.8443 1.68748C13.1772 2.50984 11.0164 3.3667 9.25 3.3667Z"
        stroke="currentColor" stroke-width="2" stroke-linecap="round" stroke-linejoin="round" />
</svg>