<svg width="100" height="100" viewBox="0 0 79 72" fill="none" xmlns="http://www.w3.org/2000/svg">
    <path
        d="M13.5997 39.7222C13.5997 45.8579 16.0592 51.4157 20.0405 55.4522C20.4245 55.8415 20.6164 56.0361 20.7298 56.2233C20.8379 56.4019 20.9008 56.5557 20.9491 56.7591C20.9997 56.9722 20.9997 57.2148 20.9997 57.6999V66.5222C20.9997 67.5645 20.9997 68.0857 21.2014 68.4838C21.3787 68.834 21.6618 69.1187 22.0099 69.2972C22.4056 69.5 22.9236 69.5 23.9597 69.5H30.9897C32.0258 69.5 32.5439 69.5 32.9396 69.2972C33.2877 69.1187 33.5707 68.834 33.7481 68.4838C33.9497 68.0857 33.9497 67.5645 33.9497 66.5222V65.0333C33.9497 63.991 33.9497 63.4699 34.1514 63.0717C34.3287 62.7216 34.6118 62.4368 34.9599 62.2584C35.3556 62.0556 35.8736 62.0556 36.9097 62.0556H42.0897C43.1258 62.0556 43.6439 62.0556 44.0396 62.2584C44.3877 62.4368 44.6707 62.7216 44.8481 63.0717C45.0497 63.4699 45.0497 63.991 45.0497 65.0333V66.5222C45.0497 67.5645 45.0497 68.0857 45.2514 68.4838C45.4287 68.834 45.7118 69.1187 46.0599 69.2972C46.4556 69.5 46.9736 69.5 48.0097 69.5H55.04C56.0761 69.5 56.5941 69.5 56.9899 69.2972C57.338 69.1187 57.621 68.834 57.7984 68.4838C58 68.0857 58 67.5645 58 66.5222V62.8906C58 62.1384 58 61.7624 58.1064 61.4605C58.2084 61.1711 58.3369 60.9686 58.5549 60.7537C58.7822 60.5295 59.1674 60.3496 59.9376 59.9898C63.5718 58.2924 66.673 55.635 68.9192 52.3412C69.3141 51.762 69.5116 51.4724 69.7225 51.3013C69.9242 51.1377 70.1052 51.0418 70.3533 50.9671C70.6129 50.8889 70.921 50.8889 71.5373 50.8889H73.54C74.5761 50.8889 75.0942 50.8889 75.4899 50.686C75.838 50.5076 76.121 50.2229 76.2984 49.8727C76.5 49.4746 76.5 48.9534 76.5 47.9111V35.2025C76.5 34.2102 76.5 33.714 76.3168 33.3313C76.1349 32.9515 75.8303 32.6451 75.4528 32.4621C75.0723 32.2778 74.5791 32.2778 73.5927 32.2778C72.8788 32.2778 72.5218 32.2778 72.2342 32.1803C71.9242 32.0751 71.7068 31.9353 71.4818 31.6963C71.2732 31.4746 71.1029 31.1039 70.7623 30.3626C69.6691 27.9832 68.1719 25.83 66.3592 23.9923C65.9753 23.603 65.7833 23.4083 65.67 23.2211C65.5619 23.0425 65.4989 22.8888 65.4506 22.6854C65.4 22.4722 65.4 22.2297 65.4 21.7445V17.6144C65.4 16.2742 65.4 15.6041 65.1226 15.1537C64.8796 14.7592 64.4988 14.4702 64.0549 14.3435C63.5482 14.1989 62.9078 14.383 61.6268 14.7512L52.8483 17.2743C52.6992 17.3172 52.6246 17.3386 52.5488 17.3537C52.4814 17.3671 52.4133 17.3766 52.3449 17.3824C52.2679 17.3889 52.1903 17.3889 52.0352 17.3889H50.4485M13.5997 39.7222C13.5997 31.146 18.405 23.6988 25.4547 19.9569M13.5997 39.7222H9.9C5.81309 39.7222 2.5 36.3892 2.5 32.2778C2.5 29.5223 3.98813 27.1164 6.2 25.8293M50.6 15.5278C50.6 22.7228 44.8021 28.5556 37.65 28.5556C30.4979 28.5556 24.7 22.7228 24.7 15.5278C24.7 8.33273 30.4979 2.5 37.65 2.5C44.8021 2.5 50.6 8.33273 50.6 15.5278Z"
        stroke="#2FB8AC" stroke-width="5" stroke-linecap="round" stroke-linejoin="round" />
</svg>