<svg width="31" height="29" viewBox="0 0 31 29" fill="none" xmlns="http://www.w3.org/2000/svg">
<g clip-path="url(#clip0_92_11949)">
<path d="M30.2948 17.0529V17.4413C29.1993 21.6303 26.428 25.1353 22.3827 27.134C16.0694 30.253 8.3464 28.8495 3.7024 23.6877C1.51379 21.2544 0.20192 18.193 0.0270441 14.9503C0.00214655 14.4935 -0.0156374 14.0623 0.0181521 13.6101L0.0566841 13.0855C0.514326 6.88711 5.19745 1.58347 11.4746 0.0228475C11.9133 -0.0862437 12.3454 0.205985 12.5215 0.508388C12.7331 0.871837 12.6649 1.28107 12.3798 1.61117C11.295 2.86883 10.5961 4.32884 10.2274 5.92734C9.4087 9.47308 10.4787 13.1545 13.0793 15.7676C15.6799 18.3807 19.4027 19.5745 23.1356 19.0138C25.2187 18.7006 27.0978 17.8194 28.7114 16.5555C28.9936 16.3345 29.3689 16.3232 29.7085 16.4221C29.9889 16.5035 30.1703 16.7601 30.2942 17.0524L30.2948 17.0529ZM27.4103 19.7395C26.0729 20.307 24.8446 20.6976 23.5648 20.8977C15.3023 22.187 7.87038 16.0621 8.02214 8.08316C8.05533 6.33261 8.45132 4.63972 9.25694 2.90726C6.91301 4.04905 5.05636 5.81372 3.81622 7.89946C0.797091 12.9764 1.84457 19.3094 6.2141 23.2988C10.9713 27.6427 18.3511 28.0288 23.5843 24.1467C25.1505 22.9851 26.4807 21.4985 27.4103 19.7401V19.7395Z" fill="black"/>
</g>
<defs>
<clipPath id="clip0_92_11949">
<rect width="30.295" height="28.7803" fill="white"/>
</clipPath>
</defs>
</svg>
