<?xml version="1.0" encoding="utf-8"?>
<!DOCTYPE svg PUBLIC "-//W3C//DTD SVG 20010904//EN" "http://www.w3.org/TR/2001/REC-SVG-20010904/DTD/svg10.dtd">
<svg version="1.0" xmlns="http://www.w3.org/2000/svg" width="34pt" height="34pt" viewBox="0 0 34 34" style="" preserveAspectRatio="xMidYMid meet">
<g fill="#E0C914FF">
<path d="M 6.299 6.250 C 3.078 9.787 2.000 12.531 2.004 17.184 C 2.017 32.219 22.138 37.662 30.005 24.759 C 33.579 18.898 32.270 10.269 27.096 5.587 C 23.895 2.690 23.580 4.227 25.929 11.287 C 28.219 18.169 27.751 22.114 24.495 23.364 C 21.923 24.350 11.081 24.114 9.049 23.026 C 6.169 21.485 5.839 17.692 7.989 10.833 C 10.314 3.416 10.213 4.000 9.174 4.000 C 8.720 4.000 7.426 5.013 6.299 6.250 "/></g>
<g fill="#E0C914FF">
<path d="M 12.927 9.014 C 11.755 12.872 11.053 16.697 11.367 17.514 C 12.020 19.216 21.473 19.661 22.477 18.037 C 22.804 17.508 22.086 13.683 20.882 9.537 C 19.192 3.723 18.276 2.000 16.875 2.000 C 15.494 2.000 14.546 3.684 12.927 9.014 "/></g>
</svg>
