<svg width="60" height="60" viewBox="0 0 60 60" fill="none" xmlns="http://www.w3.org/2000/svg">
<path d="M0 30C0 46.5685 13.4315 60 30 60C46.5685 60 60 46.5685 60 30C60 13.4315 46.5685 0 30 0C13.4315 0 0 13.4315 0 30Z" fill="#F00073"/>
<path d="M29.9999 17.2505C34.1249 17.2505 34.6874 17.2505 36.3749 17.2505C37.8749 17.2505 38.6249 17.6255 39.1874 17.813C39.9374 18.188 40.4999 18.3755 41.0624 18.938C41.6249 19.5005 41.9999 20.063 42.1874 20.813C42.3749 21.3755 42.5624 22.1255 42.7499 23.6255C42.7499 25.313 42.7499 25.688 42.7499 30.0005C42.7499 34.313 42.7499 34.688 42.7499 36.3755C42.7499 37.8755 42.3749 38.6255 42.1874 39.188C41.8124 39.938 41.6249 40.5005 41.0624 41.063C40.4999 41.6255 39.9374 42.0005 39.1874 42.188C38.6249 42.3755 37.8749 42.563 36.3749 42.7505C34.6874 42.7505 34.3124 42.7505 29.9999 42.7505C25.6874 42.7505 25.3124 42.7505 23.6249 42.7505C22.1249 42.7505 21.3749 42.3755 20.8124 42.188C20.0624 41.813 19.4999 41.6255 18.9374 41.063C18.3749 40.5005 17.9999 39.938 17.8124 39.188C17.6249 38.6255 17.4374 37.8755 17.2499 36.3755C17.2499 34.688 17.2499 34.313 17.2499 30.0005C17.2499 25.688 17.2499 25.313 17.2499 23.6255C17.2499 22.1255 17.6249 21.3755 17.8124 20.813C18.1874 20.063 18.3749 19.5005 18.9374 18.938C19.4999 18.3755 20.0624 18.0005 20.8124 17.813C21.3749 17.6255 22.1249 17.438 23.6249 17.2505C25.3124 17.2505 25.8749 17.2505 29.9999 17.2505ZM29.9999 14.438C25.6874 14.438 25.3124 14.438 23.6249 14.438C21.9374 14.438 20.8124 14.813 19.8749 15.188C18.9374 15.563 17.9999 16.1255 17.0624 17.063C16.1249 18.0005 15.7499 18.7505 15.1874 19.8755C14.8124 20.813 14.6249 21.938 14.4374 23.6255C14.4374 25.313 14.4374 25.8755 14.4374 30.0005C14.4374 34.313 14.4374 34.688 14.4374 36.3755C14.4374 38.063 14.8124 39.188 15.1874 40.1255C15.5624 41.063 16.1249 42.0005 17.0624 42.938C17.9999 43.8755 18.7499 44.2505 19.8749 44.813C20.8124 45.188 21.9374 45.3755 23.6249 45.563C25.3124 45.563 25.8749 45.563 29.9999 45.563C34.1249 45.563 34.6874 45.563 36.3749 45.563C38.0624 45.563 39.1874 45.188 40.1249 44.813C41.0624 44.438 41.9999 43.8755 42.9374 42.938C43.8749 42.0005 44.2499 41.2505 44.8124 40.1255C45.1874 39.188 45.3749 38.063 45.5624 36.3755C45.5624 34.688 45.5624 34.1255 45.5624 30.0005C45.5624 25.8755 45.5624 25.313 45.5624 23.6255C45.5624 21.938 45.1874 20.813 44.8124 19.8755C44.4374 18.938 43.8749 18.0005 42.9374 17.063C41.9999 16.1255 41.2499 15.7505 40.1249 15.188C39.1874 14.813 38.0624 14.6255 36.3749 14.438C34.6874 14.438 34.3124 14.438 29.9999 14.438Z" fill="white"/>
<path d="M29.9999 21.938C25.4999 21.938 21.9374 25.5005 21.9374 30.0005C21.9374 34.5005 25.4999 38.063 29.9999 38.063C34.4999 38.063 38.0624 34.5005 38.0624 30.0005C38.0624 25.5005 34.4999 21.938 29.9999 21.938ZM29.9999 35.2505C27.1874 35.2505 24.7499 33.0005 24.7499 30.0005C24.7499 27.188 26.9999 24.7505 29.9999 24.7505C32.8124 24.7505 35.2499 27.0005 35.2499 30.0005C35.2499 32.813 32.8124 35.2505 29.9999 35.2505Z" fill="white"/>
<path d="M38.2499 23.6255C39.2854 23.6255 40.1249 22.786 40.1249 21.7505C40.1249 20.715 39.2854 19.8755 38.2499 19.8755C37.2143 19.8755 36.3749 20.715 36.3749 21.7505C36.3749 22.786 37.2143 23.6255 38.2499 23.6255Z" fill="white"/>
</svg>
