<svg width="60" height="60" viewBox="0 0 60 60" fill="none" xmlns="http://www.w3.org/2000/svg">
<circle cx="30" cy="30" r="30" fill="#E0C300"/>
<path d="M24.128 28.3628L28.0192 16.1355C28.6997 16.0464 29.3983 16 30.1078 16C30.7123 16 31.3059 16.0321 31.8923 16.0998L35.8269 28.4306C36.0115 29.0617 36.0477 29.6358 35.9391 30.1244C35.8341 30.5951 35.5952 30.9588 35.2912 31.2333C34.9835 31.5043 34.5709 31.704 34.0496 31.8217C33.5284 31.9394 31.4796 32 30.6942 32H29.3006C28.5151 32 26.4519 31.9394 25.9379 31.8217C25.4275 31.704 25.0185 31.5079 24.7144 31.2333C24.4067 30.9588 24.1606 30.5951 24.0629 30.1244C23.9688 29.6644 23.9724 29.0332 24.128 28.3628Z" fill="black"/>
<path d="M45 29.5189C45 36.9635 38.5082 43 30.5 43C22.4918 43 16 36.967 16 29.5189C16 23.9916 19.5797 19.2369 24.7043 17.1615L21.2204 28.1388C20.7552 30.0913 20.9221 30.755 21.2027 31.7066C21.4832 32.6583 21.9555 33.5573 22.6338 34.0875C23.3512 34.6459 23.7383 34.7758 24.5729 35.0041C26.0573 35.4114 29.1256 35.3974 30.5142 35.3974H30.6207C32.0129 35.3974 35.4541 35.2885 36.4342 35.0216C37.5778 34.7126 37.5174 34.6845 38.2134 34.1718C38.906 33.6556 39.4635 32.9462 39.7334 31.9946C40.0033 31.043 40.1311 29.7682 39.7192 28.3917L35.866 17C41.2179 18.9806 45 23.8441 45 29.5259V29.5189Z" fill="black"/>
</svg>
